<mxfile host="app.diagrams.net" modified="2024-03-25T07:12:41.761Z" agent="Mozilla/5.0 (Windows NT 10.0; Win64; x64) AppleWebKit/537.36 (KHTML, like Gecko) Chrome/123.0.0.0 Safari/537.36" etag="kcqMMx-Ni8T6_qG7A_c3" version="24.1.0" type="device" pages="7">
  <diagram name="Page-1" id="TnYF-xWEwAXQx5W0DGLo">
    <mxGraphModel dx="1034" dy="412" grid="1" gridSize="10" guides="1" tooltips="1" connect="1" arrows="1" fold="1" page="1" pageScale="1" pageWidth="827" pageHeight="1169" math="0" shadow="0">
      <root>
        <mxCell id="0" />
        <mxCell id="1" parent="0" />
        <mxCell id="1g9TP71hiexpivtw64B8-17" value="" style="edgeStyle=orthogonalEdgeStyle;rounded=0;orthogonalLoop=1;jettySize=auto;html=1;" parent="1" source="1g9TP71hiexpivtw64B8-6" target="1g9TP71hiexpivtw64B8-8" edge="1">
          <mxGeometry relative="1" as="geometry" />
        </mxCell>
        <mxCell id="1g9TP71hiexpivtw64B8-6" value="preprocessing" style="shape=process;whiteSpace=wrap;html=1;backgroundOutline=1;" parent="1" vertex="1">
          <mxGeometry x="400" y="150" width="140" height="40" as="geometry" />
        </mxCell>
        <mxCell id="1g9TP71hiexpivtw64B8-16" value="" style="edgeStyle=orthogonalEdgeStyle;rounded=0;orthogonalLoop=1;jettySize=auto;html=1;" parent="1" source="1g9TP71hiexpivtw64B8-7" target="1g9TP71hiexpivtw64B8-6" edge="1">
          <mxGeometry relative="1" as="geometry" />
        </mxCell>
        <mxCell id="1g9TP71hiexpivtw64B8-7" value="Start" style="ellipse;whiteSpace=wrap;html=1;" parent="1" vertex="1">
          <mxGeometry x="430" y="80" width="80" height="50" as="geometry" />
        </mxCell>
        <mxCell id="1g9TP71hiexpivtw64B8-18" value="" style="edgeStyle=orthogonalEdgeStyle;rounded=0;orthogonalLoop=1;jettySize=auto;html=1;" parent="1" source="1g9TP71hiexpivtw64B8-8" target="1g9TP71hiexpivtw64B8-10" edge="1">
          <mxGeometry relative="1" as="geometry" />
        </mxCell>
        <mxCell id="1g9TP71hiexpivtw64B8-8" value="spatial_feature&lt;div&gt;_extraction&lt;/div&gt;" style="shape=process;whiteSpace=wrap;html=1;backgroundOutline=1;" parent="1" vertex="1">
          <mxGeometry x="400" y="210" width="140" height="40" as="geometry" />
        </mxCell>
        <mxCell id="1g9TP71hiexpivtw64B8-19" value="" style="edgeStyle=orthogonalEdgeStyle;rounded=0;orthogonalLoop=1;jettySize=auto;html=1;" parent="1" source="1g9TP71hiexpivtw64B8-10" target="1g9TP71hiexpivtw64B8-11" edge="1">
          <mxGeometry relative="1" as="geometry" />
        </mxCell>
        <mxCell id="1g9TP71hiexpivtw64B8-10" value="temporal_feature _extraction" style="shape=process;whiteSpace=wrap;html=1;backgroundOutline=1;" parent="1" vertex="1">
          <mxGeometry x="400" y="270" width="140" height="40" as="geometry" />
        </mxCell>
        <mxCell id="1g9TP71hiexpivtw64B8-20" value="" style="edgeStyle=orthogonalEdgeStyle;rounded=0;orthogonalLoop=1;jettySize=auto;html=1;" parent="1" source="1g9TP71hiexpivtw64B8-11" target="1g9TP71hiexpivtw64B8-12" edge="1">
          <mxGeometry relative="1" as="geometry" />
        </mxCell>
        <mxCell id="1g9TP71hiexpivtw64B8-11" value="prediction" style="shape=process;whiteSpace=wrap;html=1;backgroundOutline=1;" parent="1" vertex="1">
          <mxGeometry x="400" y="330" width="140" height="40" as="geometry" />
        </mxCell>
        <mxCell id="1g9TP71hiexpivtw64B8-21" value="" style="edgeStyle=orthogonalEdgeStyle;rounded=0;orthogonalLoop=1;jettySize=auto;html=1;" parent="1" source="1g9TP71hiexpivtw64B8-12" target="1g9TP71hiexpivtw64B8-15" edge="1">
          <mxGeometry relative="1" as="geometry" />
        </mxCell>
        <mxCell id="1g9TP71hiexpivtw64B8-12" value="model_evaluation" style="shape=process;whiteSpace=wrap;html=1;backgroundOutline=1;" parent="1" vertex="1">
          <mxGeometry x="400" y="390" width="140" height="40" as="geometry" />
        </mxCell>
        <mxCell id="1g9TP71hiexpivtw64B8-15" value="End" style="ellipse;whiteSpace=wrap;html=1;" parent="1" vertex="1">
          <mxGeometry x="430" y="450" width="80" height="50" as="geometry" />
        </mxCell>
      </root>
    </mxGraphModel>
  </diagram>
  <diagram id="VpUJ0Z1JYaxbEqK_ydWj" name="Page-2">
    <mxGraphModel dx="392" dy="410" grid="1" gridSize="10" guides="1" tooltips="1" connect="1" arrows="1" fold="1" page="1" pageScale="1" pageWidth="827" pageHeight="1169" math="0" shadow="0">
      <root>
        <mxCell id="0" />
        <mxCell id="1" parent="0" />
        <mxCell id="_A8lO-Pi43UMhwemw-t9-15" value="" style="edgeStyle=orthogonalEdgeStyle;rounded=0;orthogonalLoop=1;jettySize=auto;html=1;" parent="1" source="_A8lO-Pi43UMhwemw-t9-4" target="_A8lO-Pi43UMhwemw-t9-14" edge="1">
          <mxGeometry relative="1" as="geometry" />
        </mxCell>
        <mxCell id="_A8lO-Pi43UMhwemw-t9-4" value="Start" style="ellipse;whiteSpace=wrap;html=1;" parent="1" vertex="1">
          <mxGeometry x="430" y="20" width="80" height="50" as="geometry" />
        </mxCell>
        <mxCell id="_A8lO-Pi43UMhwemw-t9-20" style="edgeStyle=orthogonalEdgeStyle;rounded=0;orthogonalLoop=1;jettySize=auto;html=1;exitX=0.5;exitY=1;exitDx=0;exitDy=0;entryX=0.5;entryY=0;entryDx=0;entryDy=0;" parent="1" source="_A8lO-Pi43UMhwemw-t9-14" target="_A8lO-Pi43UMhwemw-t9-18" edge="1">
          <mxGeometry relative="1" as="geometry" />
        </mxCell>
        <mxCell id="_A8lO-Pi43UMhwemw-t9-14" value="Data Historis&amp;nbsp;&lt;div&gt;Polutan&lt;/div&gt;" style="shape=parallelogram;perimeter=parallelogramPerimeter;whiteSpace=wrap;html=1;fixedSize=1;" parent="1" vertex="1">
          <mxGeometry x="400" y="90" width="140" height="40" as="geometry" />
        </mxCell>
        <mxCell id="_A8lO-Pi43UMhwemw-t9-34" value="" style="edgeStyle=orthogonalEdgeStyle;rounded=0;orthogonalLoop=1;jettySize=auto;html=1;" parent="1" source="_A8lO-Pi43UMhwemw-t9-18" target="_A8lO-Pi43UMhwemw-t9-30" edge="1">
          <mxGeometry relative="1" as="geometry" />
        </mxCell>
        <mxCell id="_A8lO-Pi43UMhwemw-t9-18" value="Menghapus Kolom yang Tidak Digunakan" style="rounded=0;whiteSpace=wrap;html=1;" parent="1" vertex="1">
          <mxGeometry x="400" y="150" width="140" height="50" as="geometry" />
        </mxCell>
        <mxCell id="_A8lO-Pi43UMhwemw-t9-33" value="" style="edgeStyle=orthogonalEdgeStyle;rounded=0;orthogonalLoop=1;jettySize=auto;html=1;" parent="1" source="_A8lO-Pi43UMhwemw-t9-30" target="_A8lO-Pi43UMhwemw-t9-32" edge="1">
          <mxGeometry relative="1" as="geometry" />
        </mxCell>
        <mxCell id="_A8lO-Pi43UMhwemw-t9-30" value="Reducted Data&amp;nbsp;&lt;div&gt;Polutan&lt;/div&gt;" style="shape=parallelogram;perimeter=parallelogramPerimeter;whiteSpace=wrap;html=1;fixedSize=1;" parent="1" vertex="1">
          <mxGeometry x="400" y="220" width="140" height="40" as="geometry" />
        </mxCell>
        <mxCell id="_A8lO-Pi43UMhwemw-t9-32" value="End" style="ellipse;whiteSpace=wrap;html=1;" parent="1" vertex="1">
          <mxGeometry x="430" y="280" width="80" height="50" as="geometry" />
        </mxCell>
        <mxCell id="_A8lO-Pi43UMhwemw-t9-35" value="" style="edgeStyle=orthogonalEdgeStyle;rounded=0;orthogonalLoop=1;jettySize=auto;html=1;" parent="1" source="_A8lO-Pi43UMhwemw-t9-36" target="_A8lO-Pi43UMhwemw-t9-38" edge="1">
          <mxGeometry relative="1" as="geometry" />
        </mxCell>
        <mxCell id="_A8lO-Pi43UMhwemw-t9-36" value="Start" style="ellipse;whiteSpace=wrap;html=1;" parent="1" vertex="1">
          <mxGeometry x="610" y="20" width="80" height="50" as="geometry" />
        </mxCell>
        <mxCell id="_A8lO-Pi43UMhwemw-t9-37" style="edgeStyle=orthogonalEdgeStyle;rounded=0;orthogonalLoop=1;jettySize=auto;html=1;exitX=0.5;exitY=1;exitDx=0;exitDy=0;entryX=0.5;entryY=0;entryDx=0;entryDy=0;" parent="1" source="_A8lO-Pi43UMhwemw-t9-38" target="_A8lO-Pi43UMhwemw-t9-40" edge="1">
          <mxGeometry relative="1" as="geometry" />
        </mxCell>
        <mxCell id="_A8lO-Pi43UMhwemw-t9-38" value="Data Historis&amp;nbsp;&lt;div&gt;Meteorologi&lt;/div&gt;" style="shape=parallelogram;perimeter=parallelogramPerimeter;whiteSpace=wrap;html=1;fixedSize=1;" parent="1" vertex="1">
          <mxGeometry x="580" y="90" width="140" height="40" as="geometry" />
        </mxCell>
        <mxCell id="_A8lO-Pi43UMhwemw-t9-39" value="" style="edgeStyle=orthogonalEdgeStyle;rounded=0;orthogonalLoop=1;jettySize=auto;html=1;" parent="1" source="_A8lO-Pi43UMhwemw-t9-40" target="_A8lO-Pi43UMhwemw-t9-42" edge="1">
          <mxGeometry relative="1" as="geometry" />
        </mxCell>
        <mxCell id="_A8lO-Pi43UMhwemw-t9-40" value="Menghapus Kolom yang Tidak Digunakan" style="rounded=0;whiteSpace=wrap;html=1;" parent="1" vertex="1">
          <mxGeometry x="580" y="150" width="140" height="50" as="geometry" />
        </mxCell>
        <mxCell id="_A8lO-Pi43UMhwemw-t9-41" value="" style="edgeStyle=orthogonalEdgeStyle;rounded=0;orthogonalLoop=1;jettySize=auto;html=1;" parent="1" source="_A8lO-Pi43UMhwemw-t9-42" target="_A8lO-Pi43UMhwemw-t9-43" edge="1">
          <mxGeometry relative="1" as="geometry" />
        </mxCell>
        <mxCell id="_A8lO-Pi43UMhwemw-t9-42" value="Reducted Data&amp;nbsp;&lt;div&gt;Meterologi&lt;/div&gt;" style="shape=parallelogram;perimeter=parallelogramPerimeter;whiteSpace=wrap;html=1;fixedSize=1;" parent="1" vertex="1">
          <mxGeometry x="580" y="220" width="140" height="40" as="geometry" />
        </mxCell>
        <mxCell id="_A8lO-Pi43UMhwemw-t9-43" value="End" style="ellipse;whiteSpace=wrap;html=1;" parent="1" vertex="1">
          <mxGeometry x="610" y="280" width="80" height="50" as="geometry" />
        </mxCell>
      </root>
    </mxGraphModel>
  </diagram>
  <diagram id="C-dGaAjSIGouZ1bTSR5s" name="Page-3">
    <mxGraphModel dx="653" dy="683" grid="1" gridSize="10" guides="1" tooltips="1" connect="1" arrows="1" fold="1" page="1" pageScale="1" pageWidth="827" pageHeight="1169" math="0" shadow="0">
      <root>
        <mxCell id="0" />
        <mxCell id="1" parent="0" />
        <mxCell id="xQfW7Lx5weSzjh23oxMb-19" value="" style="edgeStyle=orthogonalEdgeStyle;rounded=0;orthogonalLoop=1;jettySize=auto;html=1;" parent="1" source="xQfW7Lx5weSzjh23oxMb-20" target="xQfW7Lx5weSzjh23oxMb-22" edge="1">
          <mxGeometry relative="1" as="geometry" />
        </mxCell>
        <mxCell id="xQfW7Lx5weSzjh23oxMb-20" value="Start" style="ellipse;whiteSpace=wrap;html=1;" parent="1" vertex="1">
          <mxGeometry x="310" y="20" width="80" height="50" as="geometry" />
        </mxCell>
        <mxCell id="xQfW7Lx5weSzjh23oxMb-51" value="" style="edgeStyle=orthogonalEdgeStyle;rounded=0;orthogonalLoop=1;jettySize=auto;html=1;" parent="1" source="xQfW7Lx5weSzjh23oxMb-22" target="xQfW7Lx5weSzjh23oxMb-37" edge="1">
          <mxGeometry relative="1" as="geometry" />
        </mxCell>
        <mxCell id="xQfW7Lx5weSzjh23oxMb-22" value="Reducted Data&amp;nbsp;&lt;div&gt;Polutan&lt;/div&gt;" style="shape=parallelogram;perimeter=parallelogramPerimeter;whiteSpace=wrap;html=1;fixedSize=1;" parent="1" vertex="1">
          <mxGeometry x="280" y="90" width="140" height="40" as="geometry" />
        </mxCell>
        <mxCell id="xQfW7Lx5weSzjh23oxMb-55" style="edgeStyle=orthogonalEdgeStyle;rounded=0;orthogonalLoop=1;jettySize=auto;html=1;exitX=0.5;exitY=1;exitDx=0;exitDy=0;entryX=0.5;entryY=0;entryDx=0;entryDy=0;" parent="1" source="xQfW7Lx5weSzjh23oxMb-24" target="xQfW7Lx5weSzjh23oxMb-40" edge="1">
          <mxGeometry relative="1" as="geometry" />
        </mxCell>
        <mxCell id="xQfW7Lx5weSzjh23oxMb-24" value="Konkatenasi Data Polutan dan Meteorologi" style="rounded=0;whiteSpace=wrap;html=1;" parent="1" vertex="1">
          <mxGeometry x="280" y="210" width="140" height="50" as="geometry" />
        </mxCell>
        <mxCell id="xQfW7Lx5weSzjh23oxMb-27" value="End" style="ellipse;whiteSpace=wrap;html=1;" parent="1" vertex="1">
          <mxGeometry x="530" y="430" width="80" height="50" as="geometry" />
        </mxCell>
        <mxCell id="xQfW7Lx5weSzjh23oxMb-54" style="edgeStyle=orthogonalEdgeStyle;rounded=0;orthogonalLoop=1;jettySize=auto;html=1;exitX=0.5;exitY=1;exitDx=0;exitDy=0;entryX=0.5;entryY=0;entryDx=0;entryDy=0;" parent="1" source="xQfW7Lx5weSzjh23oxMb-37" target="xQfW7Lx5weSzjh23oxMb-24" edge="1">
          <mxGeometry relative="1" as="geometry" />
        </mxCell>
        <mxCell id="xQfW7Lx5weSzjh23oxMb-37" value="Reducted Data Meteorologi" style="shape=parallelogram;perimeter=parallelogramPerimeter;whiteSpace=wrap;html=1;fixedSize=1;" parent="1" vertex="1">
          <mxGeometry x="280" y="150" width="140" height="40" as="geometry" />
        </mxCell>
        <mxCell id="xQfW7Lx5weSzjh23oxMb-49" value="True" style="edgeStyle=orthogonalEdgeStyle;rounded=0;orthogonalLoop=1;jettySize=auto;html=1;exitX=1;exitY=0.5;exitDx=0;exitDy=0;entryX=0;entryY=0.5;entryDx=0;entryDy=0;" parent="1" source="xQfW7Lx5weSzjh23oxMb-40" target="xQfW7Lx5weSzjh23oxMb-41" edge="1">
          <mxGeometry relative="1" as="geometry" />
        </mxCell>
        <mxCell id="xQfW7Lx5weSzjh23oxMb-50" value="False" style="edgeStyle=orthogonalEdgeStyle;rounded=0;orthogonalLoop=1;jettySize=auto;html=1;exitX=0.5;exitY=1;exitDx=0;exitDy=0;entryX=0;entryY=0.5;entryDx=0;entryDy=0;" parent="1" source="xQfW7Lx5weSzjh23oxMb-40" target="xQfW7Lx5weSzjh23oxMb-48" edge="1">
          <mxGeometry relative="1" as="geometry">
            <Array as="points">
              <mxPoint x="350" y="390" />
            </Array>
          </mxGeometry>
        </mxCell>
        <mxCell id="xQfW7Lx5weSzjh23oxMb-40" value="data == NaN" style="rhombus;whiteSpace=wrap;html=1;" parent="1" vertex="1">
          <mxGeometry x="280" y="280" width="140" height="80" as="geometry" />
        </mxCell>
        <mxCell id="xQfW7Lx5weSzjh23oxMb-57" style="edgeStyle=orthogonalEdgeStyle;rounded=0;orthogonalLoop=1;jettySize=auto;html=1;entryX=0.5;entryY=0;entryDx=0;entryDy=0;" parent="1" source="xQfW7Lx5weSzjh23oxMb-41" target="xQfW7Lx5weSzjh23oxMb-42" edge="1">
          <mxGeometry relative="1" as="geometry" />
        </mxCell>
        <mxCell id="xQfW7Lx5weSzjh23oxMb-41" value="Masukkan Titik Awal (t_k, x_k) dan Titik Akhir (t_(k+1), x_(k+1))" style="rounded=0;whiteSpace=wrap;html=1;" parent="1" vertex="1">
          <mxGeometry x="504" y="90" width="140" height="50" as="geometry" />
        </mxCell>
        <mxCell id="xQfW7Lx5weSzjh23oxMb-58" style="edgeStyle=orthogonalEdgeStyle;rounded=0;orthogonalLoop=1;jettySize=auto;html=1;exitX=0.5;exitY=1;exitDx=0;exitDy=0;entryX=0.5;entryY=0;entryDx=0;entryDy=0;" parent="1" source="xQfW7Lx5weSzjh23oxMb-42" target="xQfW7Lx5weSzjh23oxMb-44" edge="1">
          <mxGeometry relative="1" as="geometry" />
        </mxCell>
        <mxCell id="xQfW7Lx5weSzjh23oxMb-42" value="Masukkan nilai x (t) yang diinterpolasi" style="rounded=0;whiteSpace=wrap;html=1;" parent="1" vertex="1">
          <mxGeometry x="504" y="160" width="140" height="50" as="geometry" />
        </mxCell>
        <mxCell id="xQfW7Lx5weSzjh23oxMb-59" style="edgeStyle=orthogonalEdgeStyle;rounded=0;orthogonalLoop=1;jettySize=auto;html=1;exitX=0.5;exitY=1;exitDx=0;exitDy=0;entryX=0.5;entryY=0;entryDx=0;entryDy=0;" parent="1" source="xQfW7Lx5weSzjh23oxMb-44" target="xQfW7Lx5weSzjh23oxMb-47" edge="1">
          <mxGeometry relative="1" as="geometry" />
        </mxCell>
        <mxCell id="xQfW7Lx5weSzjh23oxMb-44" value="&lt;font style=&quot;font-size: 12px;&quot; face=&quot;Calibri, sans-serif&quot;&gt;y (x(t)) = (x_(k+1) - x_k) / (t_(k+1) - t_k) (t - t_k) + x_k&lt;/font&gt;" style="rounded=0;whiteSpace=wrap;html=1;" parent="1" vertex="1">
          <mxGeometry x="504" y="230" width="136" height="50" as="geometry" />
        </mxCell>
        <mxCell id="xQfW7Lx5weSzjh23oxMb-60" style="edgeStyle=orthogonalEdgeStyle;rounded=0;orthogonalLoop=1;jettySize=auto;html=1;exitX=0.5;exitY=1;exitDx=0;exitDy=0;entryX=0.5;entryY=0;entryDx=0;entryDy=0;" parent="1" source="xQfW7Lx5weSzjh23oxMb-47" target="xQfW7Lx5weSzjh23oxMb-48" edge="1">
          <mxGeometry relative="1" as="geometry" />
        </mxCell>
        <mxCell id="xQfW7Lx5weSzjh23oxMb-47" value="Nilai y Interpolasi" style="shape=parallelogram;perimeter=parallelogramPerimeter;whiteSpace=wrap;html=1;fixedSize=1;" parent="1" vertex="1">
          <mxGeometry x="500" y="300" width="140" height="40" as="geometry" />
        </mxCell>
        <mxCell id="xQfW7Lx5weSzjh23oxMb-61" value="" style="edgeStyle=orthogonalEdgeStyle;rounded=0;orthogonalLoop=1;jettySize=auto;html=1;" parent="1" source="xQfW7Lx5weSzjh23oxMb-48" target="xQfW7Lx5weSzjh23oxMb-27" edge="1">
          <mxGeometry relative="1" as="geometry" />
        </mxCell>
        <mxCell id="xQfW7Lx5weSzjh23oxMb-48" value="Clean Data" style="shape=parallelogram;perimeter=parallelogramPerimeter;whiteSpace=wrap;html=1;fixedSize=1;" parent="1" vertex="1">
          <mxGeometry x="500" y="370" width="140" height="40" as="geometry" />
        </mxCell>
      </root>
    </mxGraphModel>
  </diagram>
  <diagram id="w_cGrs7Pc_wAJnaNhuiY" name="Page-4">
    <mxGraphModel dx="392" dy="410" grid="1" gridSize="10" guides="1" tooltips="1" connect="1" arrows="1" fold="1" page="1" pageScale="1" pageWidth="827" pageHeight="1169" math="0" shadow="0">
      <root>
        <mxCell id="0" />
        <mxCell id="1" parent="0" />
        <mxCell id="yoAAR9uK8V1NfJpc9ZCZ-1" value="" style="edgeStyle=orthogonalEdgeStyle;rounded=0;orthogonalLoop=1;jettySize=auto;html=1;" parent="1" source="yoAAR9uK8V1NfJpc9ZCZ-2" target="yoAAR9uK8V1NfJpc9ZCZ-4" edge="1">
          <mxGeometry relative="1" as="geometry" />
        </mxCell>
        <mxCell id="yoAAR9uK8V1NfJpc9ZCZ-2" value="Start" style="ellipse;whiteSpace=wrap;html=1;" parent="1" vertex="1">
          <mxGeometry x="130" y="40" width="80" height="50" as="geometry" />
        </mxCell>
        <mxCell id="N__2aQtpuiGOl2OFYpn--7" style="edgeStyle=orthogonalEdgeStyle;rounded=0;orthogonalLoop=1;jettySize=auto;html=1;exitX=0.5;exitY=1;exitDx=0;exitDy=0;entryX=0.5;entryY=0;entryDx=0;entryDy=0;" parent="1" source="yoAAR9uK8V1NfJpc9ZCZ-4" target="N__2aQtpuiGOl2OFYpn--1" edge="1">
          <mxGeometry relative="1" as="geometry" />
        </mxCell>
        <mxCell id="yoAAR9uK8V1NfJpc9ZCZ-4" value="Clean Data" style="shape=parallelogram;perimeter=parallelogramPerimeter;whiteSpace=wrap;html=1;fixedSize=1;" parent="1" vertex="1">
          <mxGeometry x="100" y="110" width="140" height="40" as="geometry" />
        </mxCell>
        <mxCell id="yoAAR9uK8V1NfJpc9ZCZ-7" value="End" style="ellipse;whiteSpace=wrap;html=1;" parent="1" vertex="1">
          <mxGeometry x="130" y="510" width="80" height="50" as="geometry" />
        </mxCell>
        <mxCell id="N__2aQtpuiGOl2OFYpn--8" style="edgeStyle=orthogonalEdgeStyle;rounded=0;orthogonalLoop=1;jettySize=auto;html=1;exitX=0.5;exitY=1;exitDx=0;exitDy=0;entryX=0.5;entryY=0;entryDx=0;entryDy=0;" parent="1" source="N__2aQtpuiGOl2OFYpn--1" target="N__2aQtpuiGOl2OFYpn--3" edge="1">
          <mxGeometry relative="1" as="geometry" />
        </mxCell>
        <mxCell id="N__2aQtpuiGOl2OFYpn--1" value="Pisahkan Data Berdasarkan Stasiun" style="rounded=0;whiteSpace=wrap;html=1;" parent="1" vertex="1">
          <mxGeometry x="100" y="170" width="140" height="50" as="geometry" />
        </mxCell>
        <mxCell id="N__2aQtpuiGOl2OFYpn--10" style="edgeStyle=orthogonalEdgeStyle;rounded=0;orthogonalLoop=1;jettySize=auto;html=1;exitX=0.5;exitY=1;exitDx=0;exitDy=0;entryX=0.5;entryY=0;entryDx=0;entryDy=0;" parent="1" source="N__2aQtpuiGOl2OFYpn--2" target="N__2aQtpuiGOl2OFYpn--5" edge="1">
          <mxGeometry relative="1" as="geometry" />
        </mxCell>
        <mxCell id="N__2aQtpuiGOl2OFYpn--2" value="Hitung Korelasi Data Polutan Setiap Stasiun" style="rounded=0;whiteSpace=wrap;html=1;" parent="1" vertex="1">
          <mxGeometry x="100" y="310" width="140" height="50" as="geometry" />
        </mxCell>
        <mxCell id="N__2aQtpuiGOl2OFYpn--9" style="edgeStyle=orthogonalEdgeStyle;rounded=0;orthogonalLoop=1;jettySize=auto;html=1;exitX=0.5;exitY=1;exitDx=0;exitDy=0;entryX=0.5;entryY=0;entryDx=0;entryDy=0;" parent="1" source="N__2aQtpuiGOl2OFYpn--3" target="N__2aQtpuiGOl2OFYpn--2" edge="1">
          <mxGeometry relative="1" as="geometry" />
        </mxCell>
        <mxCell id="N__2aQtpuiGOl2OFYpn--3" value="Tampilkan Grafik Polutan dan Meteorologi Setiap Stasiun" style="rounded=0;whiteSpace=wrap;html=1;" parent="1" vertex="1">
          <mxGeometry x="100" y="240" width="140" height="50" as="geometry" />
        </mxCell>
        <mxCell id="N__2aQtpuiGOl2OFYpn--11" style="edgeStyle=orthogonalEdgeStyle;rounded=0;orthogonalLoop=1;jettySize=auto;html=1;exitX=0.5;exitY=1;exitDx=0;exitDy=0;entryX=0.5;entryY=0;entryDx=0;entryDy=0;" parent="1" source="N__2aQtpuiGOl2OFYpn--5" target="N__2aQtpuiGOl2OFYpn--6" edge="1">
          <mxGeometry relative="1" as="geometry" />
        </mxCell>
        <mxCell id="N__2aQtpuiGOl2OFYpn--5" value="Identifikasi Pola Korelasi Spasial dan Temporal" style="rounded=0;whiteSpace=wrap;html=1;" parent="1" vertex="1">
          <mxGeometry x="100" y="380" width="140" height="50" as="geometry" />
        </mxCell>
        <mxCell id="N__2aQtpuiGOl2OFYpn--12" style="edgeStyle=orthogonalEdgeStyle;rounded=0;orthogonalLoop=1;jettySize=auto;html=1;exitX=0.5;exitY=1;exitDx=0;exitDy=0;entryX=0.5;entryY=0;entryDx=0;entryDy=0;" parent="1" source="N__2aQtpuiGOl2OFYpn--6" target="yoAAR9uK8V1NfJpc9ZCZ-7" edge="1">
          <mxGeometry relative="1" as="geometry" />
        </mxCell>
        <mxCell id="N__2aQtpuiGOl2OFYpn--6" value="Hasil Korelasi dan Analisis" style="shape=parallelogram;perimeter=parallelogramPerimeter;whiteSpace=wrap;html=1;fixedSize=1;" parent="1" vertex="1">
          <mxGeometry x="100" y="450" width="140" height="40" as="geometry" />
        </mxCell>
      </root>
    </mxGraphModel>
  </diagram>
  <diagram id="0K9aBRIA0LbcRoyrlR2F" name="Page-5">
    <mxGraphModel dx="392" dy="410" grid="1" gridSize="10" guides="1" tooltips="1" connect="1" arrows="1" fold="1" page="1" pageScale="1" pageWidth="827" pageHeight="1169" math="0" shadow="0">
      <root>
        <mxCell id="0" />
        <mxCell id="1" parent="0" />
        <mxCell id="euV3vK-s0NnJV-u73GSC-1" value="" style="edgeStyle=orthogonalEdgeStyle;rounded=0;orthogonalLoop=1;jettySize=auto;html=1;" parent="1" source="euV3vK-s0NnJV-u73GSC-2" target="euV3vK-s0NnJV-u73GSC-4" edge="1">
          <mxGeometry relative="1" as="geometry" />
        </mxCell>
        <mxCell id="euV3vK-s0NnJV-u73GSC-2" value="Start" style="ellipse;whiteSpace=wrap;html=1;" parent="1" vertex="1">
          <mxGeometry x="130" y="40" width="80" height="50" as="geometry" />
        </mxCell>
        <mxCell id="euV3vK-s0NnJV-u73GSC-3" style="edgeStyle=orthogonalEdgeStyle;rounded=0;orthogonalLoop=1;jettySize=auto;html=1;exitX=0.5;exitY=1;exitDx=0;exitDy=0;entryX=0.5;entryY=0;entryDx=0;entryDy=0;" parent="1" source="euV3vK-s0NnJV-u73GSC-4" target="euV3vK-s0NnJV-u73GSC-7" edge="1">
          <mxGeometry relative="1" as="geometry" />
        </mxCell>
        <mxCell id="euV3vK-s0NnJV-u73GSC-4" value="Clean Data" style="shape=parallelogram;perimeter=parallelogramPerimeter;whiteSpace=wrap;html=1;fixedSize=1;" parent="1" vertex="1">
          <mxGeometry x="100" y="110" width="140" height="40" as="geometry" />
        </mxCell>
        <mxCell id="euV3vK-s0NnJV-u73GSC-5" value="End" style="ellipse;whiteSpace=wrap;html=1;" parent="1" vertex="1">
          <mxGeometry x="130" y="460" width="80" height="50" as="geometry" />
        </mxCell>
        <mxCell id="euV3vK-s0NnJV-u73GSC-6" style="edgeStyle=orthogonalEdgeStyle;rounded=0;orthogonalLoop=1;jettySize=auto;html=1;exitX=0.5;exitY=1;exitDx=0;exitDy=0;entryX=0.5;entryY=0;entryDx=0;entryDy=0;" parent="1" source="euV3vK-s0NnJV-u73GSC-7" target="euV3vK-s0NnJV-u73GSC-11" edge="1">
          <mxGeometry relative="1" as="geometry" />
        </mxCell>
        <mxCell id="euV3vK-s0NnJV-u73GSC-7" value="Tentukan Rasio Pembagian (7:3)" style="rounded=0;whiteSpace=wrap;html=1;" parent="1" vertex="1">
          <mxGeometry x="100" y="170" width="140" height="50" as="geometry" />
        </mxCell>
        <mxCell id="euV3vK-s0NnJV-u73GSC-18" style="edgeStyle=orthogonalEdgeStyle;rounded=0;orthogonalLoop=1;jettySize=auto;html=1;exitX=0.5;exitY=1;exitDx=0;exitDy=0;entryX=0.5;entryY=0;entryDx=0;entryDy=0;" parent="1" source="euV3vK-s0NnJV-u73GSC-9" target="euV3vK-s0NnJV-u73GSC-15" edge="1">
          <mxGeometry relative="1" as="geometry">
            <Array as="points">
              <mxPoint x="170" y="370" />
              <mxPoint x="90" y="370" />
            </Array>
          </mxGeometry>
        </mxCell>
        <mxCell id="euV3vK-s0NnJV-u73GSC-19" style="edgeStyle=orthogonalEdgeStyle;rounded=0;orthogonalLoop=1;jettySize=auto;html=1;exitX=0.5;exitY=1;exitDx=0;exitDy=0;entryX=0.5;entryY=0;entryDx=0;entryDy=0;" parent="1" source="euV3vK-s0NnJV-u73GSC-9" target="euV3vK-s0NnJV-u73GSC-16" edge="1">
          <mxGeometry relative="1" as="geometry">
            <Array as="points">
              <mxPoint x="170" y="370" />
              <mxPoint x="250" y="370" />
            </Array>
          </mxGeometry>
        </mxCell>
        <mxCell id="euV3vK-s0NnJV-u73GSC-9" value="Bagi Data Menjadi Dua Subset&amp;nbsp;" style="rounded=0;whiteSpace=wrap;html=1;" parent="1" vertex="1">
          <mxGeometry x="100" y="310" width="140" height="50" as="geometry" />
        </mxCell>
        <mxCell id="euV3vK-s0NnJV-u73GSC-10" style="edgeStyle=orthogonalEdgeStyle;rounded=0;orthogonalLoop=1;jettySize=auto;html=1;exitX=0.5;exitY=1;exitDx=0;exitDy=0;entryX=0.5;entryY=0;entryDx=0;entryDy=0;" parent="1" source="euV3vK-s0NnJV-u73GSC-11" target="euV3vK-s0NnJV-u73GSC-9" edge="1">
          <mxGeometry relative="1" as="geometry" />
        </mxCell>
        <mxCell id="euV3vK-s0NnJV-u73GSC-11" value="Hitung Jumlah Data &lt;i&gt;Training&lt;/i&gt; dan &lt;i&gt;Testing&lt;/i&gt; Berdasarkan Rasio" style="rounded=0;whiteSpace=wrap;html=1;" parent="1" vertex="1">
          <mxGeometry x="100" y="240" width="140" height="50" as="geometry" />
        </mxCell>
        <mxCell id="euV3vK-s0NnJV-u73GSC-14" style="edgeStyle=orthogonalEdgeStyle;rounded=0;orthogonalLoop=1;jettySize=auto;html=1;exitX=0.5;exitY=1;exitDx=0;exitDy=0;entryX=0.5;entryY=0;entryDx=0;entryDy=0;" parent="1" source="euV3vK-s0NnJV-u73GSC-15" target="euV3vK-s0NnJV-u73GSC-5" edge="1">
          <mxGeometry relative="1" as="geometry">
            <Array as="points">
              <mxPoint x="90" y="440" />
              <mxPoint x="170" y="440" />
            </Array>
          </mxGeometry>
        </mxCell>
        <mxCell id="euV3vK-s0NnJV-u73GSC-15" value="Data &lt;i&gt;Training&lt;/i&gt;" style="shape=parallelogram;perimeter=parallelogramPerimeter;whiteSpace=wrap;html=1;fixedSize=1;" parent="1" vertex="1">
          <mxGeometry x="20" y="390" width="140" height="40" as="geometry" />
        </mxCell>
        <mxCell id="euV3vK-s0NnJV-u73GSC-17" style="edgeStyle=orthogonalEdgeStyle;rounded=0;orthogonalLoop=1;jettySize=auto;html=1;exitX=0.5;exitY=1;exitDx=0;exitDy=0;entryX=0.5;entryY=0;entryDx=0;entryDy=0;" parent="1" source="euV3vK-s0NnJV-u73GSC-16" target="euV3vK-s0NnJV-u73GSC-5" edge="1">
          <mxGeometry relative="1" as="geometry">
            <Array as="points">
              <mxPoint x="250" y="440" />
              <mxPoint x="170" y="440" />
            </Array>
          </mxGeometry>
        </mxCell>
        <mxCell id="euV3vK-s0NnJV-u73GSC-16" value="Data &lt;i&gt;Testing&lt;/i&gt;" style="shape=parallelogram;perimeter=parallelogramPerimeter;whiteSpace=wrap;html=1;fixedSize=1;" parent="1" vertex="1">
          <mxGeometry x="180" y="390" width="140" height="40" as="geometry" />
        </mxCell>
      </root>
    </mxGraphModel>
  </diagram>
  <diagram id="J_ZqHXvt5K5bDuOTzG2z" name="Page-6">
    <mxGraphModel dx="413" dy="433" grid="1" gridSize="10" guides="1" tooltips="1" connect="1" arrows="1" fold="1" page="1" pageScale="1" pageWidth="827" pageHeight="1169" math="0" shadow="0">
      <root>
        <mxCell id="0" />
        <mxCell id="1" parent="0" />
        <mxCell id="6kicNExVo__OpK1LTNXK-20" style="edgeStyle=orthogonalEdgeStyle;rounded=0;orthogonalLoop=1;jettySize=auto;html=1;exitX=0.5;exitY=1;exitDx=0;exitDy=0;" parent="1" source="6kicNExVo__OpK1LTNXK-2" target="6kicNExVo__OpK1LTNXK-18" edge="1">
          <mxGeometry relative="1" as="geometry">
            <Array as="points">
              <mxPoint x="170" y="90" />
              <mxPoint x="90" y="90" />
            </Array>
          </mxGeometry>
        </mxCell>
        <mxCell id="6kicNExVo__OpK1LTNXK-21" style="edgeStyle=orthogonalEdgeStyle;rounded=0;orthogonalLoop=1;jettySize=auto;html=1;exitX=0.5;exitY=1;exitDx=0;exitDy=0;entryX=0.5;entryY=0;entryDx=0;entryDy=0;" parent="1" source="6kicNExVo__OpK1LTNXK-2" target="6kicNExVo__OpK1LTNXK-19" edge="1">
          <mxGeometry relative="1" as="geometry">
            <Array as="points">
              <mxPoint x="170" y="90" />
              <mxPoint x="250" y="90" />
            </Array>
          </mxGeometry>
        </mxCell>
        <mxCell id="6kicNExVo__OpK1LTNXK-2" value="Start" style="ellipse;whiteSpace=wrap;html=1;" parent="1" vertex="1">
          <mxGeometry x="130" y="30" width="80" height="50" as="geometry" />
        </mxCell>
        <mxCell id="6kicNExVo__OpK1LTNXK-5" value="End" style="ellipse;whiteSpace=wrap;html=1;" parent="1" vertex="1">
          <mxGeometry x="130" y="430" width="80" height="50" as="geometry" />
        </mxCell>
        <mxCell id="6kicNExVo__OpK1LTNXK-6" style="edgeStyle=orthogonalEdgeStyle;rounded=0;orthogonalLoop=1;jettySize=auto;html=1;exitX=0.5;exitY=1;exitDx=0;exitDy=0;entryX=0.5;entryY=0;entryDx=0;entryDy=0;" parent="1" source="6kicNExVo__OpK1LTNXK-7" target="6kicNExVo__OpK1LTNXK-12" edge="1">
          <mxGeometry relative="1" as="geometry" />
        </mxCell>
        <mxCell id="6kicNExVo__OpK1LTNXK-22" style="edgeStyle=orthogonalEdgeStyle;rounded=0;orthogonalLoop=1;jettySize=auto;html=1;exitX=0.5;exitY=1;exitDx=0;exitDy=0;entryX=0.5;entryY=0;entryDx=0;entryDy=0;" parent="1" source="6kicNExVo__OpK1LTNXK-12" target="6kicNExVo__OpK1LTNXK-14" edge="1">
          <mxGeometry relative="1" as="geometry" />
        </mxCell>
        <mxCell id="6kicNExVo__OpK1LTNXK-23" style="edgeStyle=orthogonalEdgeStyle;rounded=0;orthogonalLoop=1;jettySize=auto;html=1;exitX=0.5;exitY=1;exitDx=0;exitDy=0;" parent="1" source="6kicNExVo__OpK1LTNXK-12" target="6kicNExVo__OpK1LTNXK-16" edge="1">
          <mxGeometry relative="1" as="geometry" />
        </mxCell>
        <mxCell id="6kicNExVo__OpK1LTNXK-12" value="z = (x_i +&amp;nbsp;&lt;span style=&quot;color: rgb(32, 33, 34); font-family: sans-serif; font-size: 14px; text-align: start; background-color: rgb(255, 255, 255);&quot;&gt;μ) /&amp;nbsp;&lt;/span&gt;&lt;span style=&quot;color: rgb(65, 0, 7); font-family: &amp;quot;Google Sans&amp;quot;, Roboto, &amp;quot;Helvetica Neue&amp;quot;, Arial, sans-serif; text-align: start; background-color: rgb(255, 255, 255);&quot;&gt;σ&lt;/span&gt;" style="rounded=0;whiteSpace=wrap;html=1;" parent="1" vertex="1">
          <mxGeometry x="100" y="260" width="140" height="50" as="geometry" />
        </mxCell>
        <mxCell id="6kicNExVo__OpK1LTNXK-13" style="edgeStyle=orthogonalEdgeStyle;rounded=0;orthogonalLoop=1;jettySize=auto;html=1;exitX=0.5;exitY=1;exitDx=0;exitDy=0;entryX=0.5;entryY=0;entryDx=0;entryDy=0;" parent="1" source="6kicNExVo__OpK1LTNXK-14" target="6kicNExVo__OpK1LTNXK-5" edge="1">
          <mxGeometry relative="1" as="geometry">
            <Array as="points">
              <mxPoint x="90" y="410" />
              <mxPoint x="170" y="410" />
            </Array>
          </mxGeometry>
        </mxCell>
        <mxCell id="6kicNExVo__OpK1LTNXK-14" value="&lt;i&gt;Normalize &lt;/i&gt;Data&amp;nbsp;&lt;div&gt;&lt;i&gt;Training&lt;/i&gt;&lt;/div&gt;" style="shape=parallelogram;perimeter=parallelogramPerimeter;whiteSpace=wrap;html=1;fixedSize=1;" parent="1" vertex="1">
          <mxGeometry x="20" y="350" width="140" height="40" as="geometry" />
        </mxCell>
        <mxCell id="6kicNExVo__OpK1LTNXK-15" style="edgeStyle=orthogonalEdgeStyle;rounded=0;orthogonalLoop=1;jettySize=auto;html=1;exitX=0.5;exitY=1;exitDx=0;exitDy=0;entryX=0.5;entryY=0;entryDx=0;entryDy=0;" parent="1" source="6kicNExVo__OpK1LTNXK-16" target="6kicNExVo__OpK1LTNXK-5" edge="1">
          <mxGeometry relative="1" as="geometry">
            <Array as="points">
              <mxPoint x="250" y="410" />
              <mxPoint x="170" y="410" />
            </Array>
          </mxGeometry>
        </mxCell>
        <mxCell id="6kicNExVo__OpK1LTNXK-16" value="&lt;i&gt;Normalize&amp;nbsp;&lt;/i&gt;Data&amp;nbsp;&lt;div&gt;&lt;i&gt;Testing&lt;/i&gt;&lt;/div&gt;" style="shape=parallelogram;perimeter=parallelogramPerimeter;whiteSpace=wrap;html=1;fixedSize=1;" parent="1" vertex="1">
          <mxGeometry x="180" y="350" width="140" height="40" as="geometry" />
        </mxCell>
        <mxCell id="6kicNExVo__OpK1LTNXK-24" style="edgeStyle=orthogonalEdgeStyle;rounded=0;orthogonalLoop=1;jettySize=auto;html=1;exitX=0.5;exitY=1;exitDx=0;exitDy=0;entryX=0.5;entryY=0;entryDx=0;entryDy=0;" parent="1" source="6kicNExVo__OpK1LTNXK-18" target="6kicNExVo__OpK1LTNXK-7" edge="1">
          <mxGeometry relative="1" as="geometry" />
        </mxCell>
        <mxCell id="6kicNExVo__OpK1LTNXK-18" value="Data &lt;i&gt;Training&lt;/i&gt;" style="shape=parallelogram;perimeter=parallelogramPerimeter;whiteSpace=wrap;html=1;fixedSize=1;" parent="1" vertex="1">
          <mxGeometry x="20" y="110" width="140" height="40" as="geometry" />
        </mxCell>
        <mxCell id="6kicNExVo__OpK1LTNXK-25" style="edgeStyle=orthogonalEdgeStyle;rounded=0;orthogonalLoop=1;jettySize=auto;html=1;exitX=0.5;exitY=1;exitDx=0;exitDy=0;" parent="1" source="6kicNExVo__OpK1LTNXK-7" edge="1">
          <mxGeometry relative="1" as="geometry">
            <mxPoint x="170" y="209.9999999999999" as="targetPoint" />
          </mxGeometry>
        </mxCell>
        <mxCell id="6kicNExVo__OpK1LTNXK-19" value="Data &lt;i&gt;Testing&lt;/i&gt;" style="shape=parallelogram;perimeter=parallelogramPerimeter;whiteSpace=wrap;html=1;fixedSize=1;" parent="1" vertex="1">
          <mxGeometry x="180" y="110" width="140" height="40" as="geometry" />
        </mxCell>
        <mxCell id="6kicNExVo__OpK1LTNXK-26" value="" style="edgeStyle=orthogonalEdgeStyle;rounded=0;orthogonalLoop=1;jettySize=auto;html=1;exitX=0.5;exitY=1;exitDx=0;exitDy=0;" parent="1" source="6kicNExVo__OpK1LTNXK-19" target="6kicNExVo__OpK1LTNXK-7" edge="1">
          <mxGeometry relative="1" as="geometry">
            <mxPoint x="170" y="209.9999999999999" as="targetPoint" />
            <mxPoint x="250" y="150" as="sourcePoint" />
          </mxGeometry>
        </mxCell>
        <mxCell id="6kicNExVo__OpK1LTNXK-7" value="Hitung Rata-rata (&lt;span style=&quot;color: rgb(32, 33, 34); font-family: sans-serif; font-size: 14px; text-align: start; background-color: rgb(255, 255, 255);&quot;&gt;μ&lt;/span&gt;) dan Standard Deviasi (&lt;span style=&quot;color: rgb(65, 0, 7); font-family: &amp;quot;Google Sans&amp;quot;, Roboto, &amp;quot;Helvetica Neue&amp;quot;, Arial, sans-serif; text-align: start; background-color: rgb(255, 255, 255);&quot;&gt;&lt;font style=&quot;font-size: 12px;&quot;&gt;σ)&lt;/font&gt;&lt;/span&gt;&amp;nbsp;" style="rounded=0;whiteSpace=wrap;html=1;" parent="1" vertex="1">
          <mxGeometry x="100" y="190" width="140" height="50" as="geometry" />
        </mxCell>
      </root>
    </mxGraphModel>
  </diagram>
  <diagram id="Z1TIlKa4kEaxSF1GHFcv" name="Page-7">
    <mxGraphModel dx="603" dy="632" grid="1" gridSize="10" guides="1" tooltips="1" connect="1" arrows="1" fold="1" page="1" pageScale="1" pageWidth="827" pageHeight="1169" math="0" shadow="0">
      <root>
        <mxCell id="0" />
        <mxCell id="1" parent="0" />
        <mxCell id="rT8AC_UROmQxKNvCP5PV-1" style="edgeStyle=orthogonalEdgeStyle;rounded=0;orthogonalLoop=1;jettySize=auto;html=1;exitX=0.5;exitY=1;exitDx=0;exitDy=0;" edge="1" parent="1" source="rT8AC_UROmQxKNvCP5PV-3" target="rT8AC_UROmQxKNvCP5PV-14">
          <mxGeometry relative="1" as="geometry">
            <Array as="points">
              <mxPoint x="170" y="90" />
              <mxPoint x="90" y="90" />
            </Array>
          </mxGeometry>
        </mxCell>
        <mxCell id="rT8AC_UROmQxKNvCP5PV-2" style="edgeStyle=orthogonalEdgeStyle;rounded=0;orthogonalLoop=1;jettySize=auto;html=1;exitX=0.5;exitY=1;exitDx=0;exitDy=0;entryX=0.5;entryY=0;entryDx=0;entryDy=0;" edge="1" parent="1" source="rT8AC_UROmQxKNvCP5PV-3" target="rT8AC_UROmQxKNvCP5PV-16">
          <mxGeometry relative="1" as="geometry">
            <Array as="points">
              <mxPoint x="170" y="90" />
              <mxPoint x="250" y="90" />
            </Array>
          </mxGeometry>
        </mxCell>
        <mxCell id="rT8AC_UROmQxKNvCP5PV-3" value="Start" style="ellipse;whiteSpace=wrap;html=1;" vertex="1" parent="1">
          <mxGeometry x="130" y="30" width="80" height="50" as="geometry" />
        </mxCell>
        <mxCell id="rT8AC_UROmQxKNvCP5PV-4" value="End" style="ellipse;whiteSpace=wrap;html=1;" vertex="1" parent="1">
          <mxGeometry x="130" y="550" width="80" height="50" as="geometry" />
        </mxCell>
        <mxCell id="rT8AC_UROmQxKNvCP5PV-5" style="edgeStyle=orthogonalEdgeStyle;rounded=0;orthogonalLoop=1;jettySize=auto;html=1;exitX=0.5;exitY=1;exitDx=0;exitDy=0;entryX=0.5;entryY=0;entryDx=0;entryDy=0;" edge="1" parent="1" source="rT8AC_UROmQxKNvCP5PV-18" target="rT8AC_UROmQxKNvCP5PV-8">
          <mxGeometry relative="1" as="geometry" />
        </mxCell>
        <mxCell id="rT8AC_UROmQxKNvCP5PV-30" style="edgeStyle=orthogonalEdgeStyle;rounded=0;orthogonalLoop=1;jettySize=auto;html=1;exitX=0.5;exitY=1;exitDx=0;exitDy=0;entryX=0.5;entryY=0;entryDx=0;entryDy=0;" edge="1" parent="1" source="rT8AC_UROmQxKNvCP5PV-8" target="rT8AC_UROmQxKNvCP5PV-19">
          <mxGeometry relative="1" as="geometry" />
        </mxCell>
        <mxCell id="rT8AC_UROmQxKNvCP5PV-8" value="samples = data.shape[0] - timesteps" style="rounded=0;whiteSpace=wrap;html=1;" vertex="1" parent="1">
          <mxGeometry x="100" y="260" width="140" height="50" as="geometry" />
        </mxCell>
        <mxCell id="rT8AC_UROmQxKNvCP5PV-13" style="edgeStyle=orthogonalEdgeStyle;rounded=0;orthogonalLoop=1;jettySize=auto;html=1;exitX=0.5;exitY=1;exitDx=0;exitDy=0;entryX=0.5;entryY=0;entryDx=0;entryDy=0;" edge="1" parent="1" source="rT8AC_UROmQxKNvCP5PV-14" target="rT8AC_UROmQxKNvCP5PV-18">
          <mxGeometry relative="1" as="geometry" />
        </mxCell>
        <mxCell id="rT8AC_UROmQxKNvCP5PV-14" value="Data &lt;i&gt;Training&lt;/i&gt;" style="shape=parallelogram;perimeter=parallelogramPerimeter;whiteSpace=wrap;html=1;fixedSize=1;" vertex="1" parent="1">
          <mxGeometry x="20" y="110" width="140" height="40" as="geometry" />
        </mxCell>
        <mxCell id="rT8AC_UROmQxKNvCP5PV-15" style="edgeStyle=orthogonalEdgeStyle;rounded=0;orthogonalLoop=1;jettySize=auto;html=1;exitX=0.5;exitY=1;exitDx=0;exitDy=0;" edge="1" parent="1" source="rT8AC_UROmQxKNvCP5PV-18">
          <mxGeometry relative="1" as="geometry">
            <mxPoint x="170" y="209.9999999999999" as="targetPoint" />
          </mxGeometry>
        </mxCell>
        <mxCell id="rT8AC_UROmQxKNvCP5PV-16" value="Data &lt;i&gt;Testing&lt;/i&gt;" style="shape=parallelogram;perimeter=parallelogramPerimeter;whiteSpace=wrap;html=1;fixedSize=1;" vertex="1" parent="1">
          <mxGeometry x="180" y="110" width="140" height="40" as="geometry" />
        </mxCell>
        <mxCell id="rT8AC_UROmQxKNvCP5PV-17" value="" style="edgeStyle=orthogonalEdgeStyle;rounded=0;orthogonalLoop=1;jettySize=auto;html=1;exitX=0.5;exitY=1;exitDx=0;exitDy=0;" edge="1" parent="1" source="rT8AC_UROmQxKNvCP5PV-16" target="rT8AC_UROmQxKNvCP5PV-18">
          <mxGeometry relative="1" as="geometry">
            <mxPoint x="170" y="209.9999999999999" as="targetPoint" />
            <mxPoint x="250" y="150" as="sourcePoint" />
          </mxGeometry>
        </mxCell>
        <mxCell id="rT8AC_UROmQxKNvCP5PV-18" value="timesteps = 3" style="rounded=0;whiteSpace=wrap;html=1;" vertex="1" parent="1">
          <mxGeometry x="100" y="190" width="140" height="50" as="geometry" />
        </mxCell>
        <mxCell id="rT8AC_UROmQxKNvCP5PV-31" style="edgeStyle=orthogonalEdgeStyle;rounded=0;orthogonalLoop=1;jettySize=auto;html=1;exitX=0.5;exitY=1;exitDx=0;exitDy=0;entryX=0.5;entryY=0;entryDx=0;entryDy=0;" edge="1" parent="1" source="rT8AC_UROmQxKNvCP5PV-19" target="rT8AC_UROmQxKNvCP5PV-22">
          <mxGeometry relative="1" as="geometry" />
        </mxCell>
        <mxCell id="rT8AC_UROmQxKNvCP5PV-19" value="features = data.shape[1]" style="rounded=0;whiteSpace=wrap;html=1;" vertex="1" parent="1">
          <mxGeometry x="100" y="330" width="140" height="50" as="geometry" />
        </mxCell>
        <mxCell id="rT8AC_UROmQxKNvCP5PV-25" style="edgeStyle=orthogonalEdgeStyle;rounded=0;orthogonalLoop=1;jettySize=auto;html=1;" edge="1" parent="1" source="rT8AC_UROmQxKNvCP5PV-22" target="rT8AC_UROmQxKNvCP5PV-23">
          <mxGeometry relative="1" as="geometry">
            <Array as="points">
              <mxPoint x="170" y="460" />
              <mxPoint x="90" y="460" />
            </Array>
          </mxGeometry>
        </mxCell>
        <mxCell id="rT8AC_UROmQxKNvCP5PV-26" style="edgeStyle=orthogonalEdgeStyle;rounded=0;orthogonalLoop=1;jettySize=auto;html=1;exitX=0.5;exitY=1;exitDx=0;exitDy=0;entryX=0.5;entryY=0;entryDx=0;entryDy=0;" edge="1" parent="1" source="rT8AC_UROmQxKNvCP5PV-22" target="rT8AC_UROmQxKNvCP5PV-24">
          <mxGeometry relative="1" as="geometry">
            <Array as="points">
              <mxPoint x="170" y="460" />
              <mxPoint x="250" y="460" />
            </Array>
          </mxGeometry>
        </mxCell>
        <mxCell id="rT8AC_UROmQxKNvCP5PV-22" value="Reshape = samples, timesteps, features" style="rounded=0;whiteSpace=wrap;html=1;" vertex="1" parent="1">
          <mxGeometry x="100" y="400" width="140" height="50" as="geometry" />
        </mxCell>
        <mxCell id="rT8AC_UROmQxKNvCP5PV-27" style="edgeStyle=orthogonalEdgeStyle;rounded=0;orthogonalLoop=1;jettySize=auto;html=1;exitX=0.5;exitY=1;exitDx=0;exitDy=0;entryX=0.5;entryY=0;entryDx=0;entryDy=0;" edge="1" parent="1" source="rT8AC_UROmQxKNvCP5PV-23" target="rT8AC_UROmQxKNvCP5PV-4">
          <mxGeometry relative="1" as="geometry">
            <Array as="points">
              <mxPoint x="90" y="530" />
              <mxPoint x="170" y="530" />
            </Array>
          </mxGeometry>
        </mxCell>
        <mxCell id="rT8AC_UROmQxKNvCP5PV-23" value="Data &lt;i&gt;Training&lt;/i&gt;" style="shape=parallelogram;perimeter=parallelogramPerimeter;whiteSpace=wrap;html=1;fixedSize=1;" vertex="1" parent="1">
          <mxGeometry x="20" y="480" width="140" height="40" as="geometry" />
        </mxCell>
        <mxCell id="rT8AC_UROmQxKNvCP5PV-28" style="edgeStyle=orthogonalEdgeStyle;rounded=0;orthogonalLoop=1;jettySize=auto;html=1;exitX=0.5;exitY=1;exitDx=0;exitDy=0;" edge="1" parent="1" source="rT8AC_UROmQxKNvCP5PV-24">
          <mxGeometry relative="1" as="geometry">
            <mxPoint x="170" y="550" as="targetPoint" />
            <Array as="points">
              <mxPoint x="250" y="530" />
              <mxPoint x="171" y="530" />
              <mxPoint x="171" y="550" />
            </Array>
          </mxGeometry>
        </mxCell>
        <mxCell id="rT8AC_UROmQxKNvCP5PV-24" value="Data &lt;i&gt;Testing&lt;/i&gt;" style="shape=parallelogram;perimeter=parallelogramPerimeter;whiteSpace=wrap;html=1;fixedSize=1;" vertex="1" parent="1">
          <mxGeometry x="180" y="480" width="140" height="40" as="geometry" />
        </mxCell>
      </root>
    </mxGraphModel>
  </diagram>
</mxfile>
